<svg width="597" height="553" viewBox="0 0 597 553" fill="none" xmlns="http://www.w3.org/2000/svg">
<rect width="597" height="552.401" rx="50" fill="white"/>
<g filter="url(#filter0_d_97_2)">
<path d="M302.664 489.305C303.423 494.546 296.58 497.216 293.589 492.845L104.004 215.751C100.969 211.315 106.114 205.869 110.715 208.647L274.494 307.527C275.776 308.301 276.644 309.609 276.858 311.091L302.664 489.305Z" fill="#01051D"/>
<path d="M105.319 216.277C100.991 213.656 102.849 207 107.909 207H452.957C456.663 207 459.081 210.89 457.441 214.212L424.875 280.212C424.033 281.919 422.295 283 420.392 283H216.896C215.983 283 215.087 282.75 214.306 282.277L105.319 216.277Z" fill="#01051D"/>
<path d="M108.282 88.4425C103.626 86.0375 105.336 79 110.577 79H516.331C520.182 79 522.587 83.1705 520.659 86.5039L482.475 152.504C481.581 154.049 479.932 155 478.147 155H238.365C237.566 155 236.779 154.809 236.07 154.442L108.282 88.4425Z" fill="#01051D"/>
</g>
<defs>
<filter id="filter0_d_97_2" x="82.9004" y="69" width="458.438" height="456.038" filterUnits="userSpaceOnUse" color-interpolation-filters="sRGB">
<feFlood flood-opacity="0" result="BackgroundImageFix"/>
<feColorMatrix in="SourceAlpha" type="matrix" values="0 0 0 0 0 0 0 0 0 0 0 0 0 0 0 0 0 0 127 0" result="hardAlpha"/>
<feOffset dy="10"/>
<feGaussianBlur stdDeviation="10"/>
<feComposite in2="hardAlpha" operator="out"/>
<feColorMatrix type="matrix" values="0 0 0 0 0 0 0 0 0 0 0 0 0 0 0 0 0 0 0.15 0"/>
<feBlend mode="normal" in2="BackgroundImageFix" result="effect1_dropShadow_97_2"/>
<feBlend mode="normal" in="SourceGraphic" in2="effect1_dropShadow_97_2" result="shape"/>
</filter>
</defs>
</svg>
